<svg width="960" height="1080" fill="none" xmlns="http://www.w3.org/2000/svg"><path fill="#A8E0EF" style="mix-blend-mode:darken" d="M0 0h960v1080H0z"/><path d="M919 653.564c0 240.405-231.267 215.72-435.724 215.72S41 893.969 41 653.564s32.761-612.49 425.896-358.248C683.119 468.662 919 413.159 919 653.564z" fill="#D9F7FE" fill-opacity=".25"/><path d="M261.847 581.876l.051.11c.931-6.756 2.249-13.211 3.942-19.312l-3.867-1.169c-5.61-1.697-9.749-4.691-12.797-8.062-6.982-7.722-8.238-17.418-8.307-17.998l-1.193-10.001 8.987 4.546c.695.352 16.561 8.541 19.919 24.007a111.625 111.625 0 0 1 3.053-7.64c-.12-1.967-.104-6.677 2.013-12.433 2.393-6.503 8.063-15.725 21.492-22.732l8.798-4.59-.928 9.879c-2.042 21.728-15.435 30.919-21.379 33.961-1.842 4.112-3.411 8.402-4.724 12.82l1.883-1.648c.526-.46 13.065-11.238 29.508-8.513l10.053 1.666-7.028 7.379c-13.383 14.051-29.946 8.889-30.644 8.662l-5.339-1.733c-1.667 6.842-2.785 13.921-3.448 21.061 6.405-3.801 21.113-10.642 40.132-7.556l11.709 1.899-9.125 7.579c-19.389 16.102-37.96 11.937-43.421 10.186a203.708 203.708 0 0 0 .226 15.683c2.748-1.458 21.135-10.456 43.922-3.281l11.314 3.563-10.12 6.188c-21.677 13.256-39.547 6.096-44.345 3.696 1.535 15.468 4.573 29.558 8.009 40.123l1.669 5.131-10.264 3.339-1.67-5.132c-2.994-9.207-5.367-19.492-7.017-30.153l-2.045.833c-9.95 4.053-19.268-2.807-19.661-3.101l-10.476-7.863 12.974-1.798c1.147-.16 11.283-1.399 18.03 3.214-.551-4.76-.954-9.557-1.203-14.33l-6.583.046c-16.706.12-27.746-6.246-34.066-11.606a46.43 46.43 0 0 1-4.41-4.269c-3.721-4.116-5.416-7.51-5.648-7.994l-3.831-7.984 8.852.256c1.023.029 25.258.974 43.228 22.768l2.224 2.698c-.039-1.593-.062-3.18-.064-4.759-.01-5.962.24-11.766.743-17.388l-4.78-.664c-10.263-1.424-17.813-7.115-22.956-12.803-5.697-6.301-8.442-12.601-8.65-13.092l-5.129-12.053 12.131 4.944c.937.381 23.01 9.525 30.256 25.42z" fill="#DBF8FF" opacity=".7"/><path d="M254.675 768.749h50.531c10.313 0 19.078-6.703 21.141-16.5l15.469-74.25c1.546-6.187-3.61-12.375-10.313-12.375H228.894c-6.703 0-11.859 6.188-10.312 12.375l15.468 74.25c1.547 9.797 10.313 16.5 20.625 16.5z" fill="url(#paint0_linear)"/><path d="M696.7 514.787c7.07 0 12.8-14.804 12.8-33.067 0-18.262-5.73-33.067-12.8-33.067-7.069 0-12.8 14.805-12.8 33.067 0 18.263 5.731 33.067 12.8 33.067z" fill="#A8E0EF"/><path d="M389.5 725.987l295.467 18.133 50.133-85.333V522.253l-281.6-12.8-70.4 37.334 6.4 179.2z" fill="url(#paint1_linear)"/><path d="M727.633 522.253l-50.133 259.2h-6.4V520.12l56.533 2.133z" fill="#B2B7BA"/><path d="M735.1 522.253l1.066 202.667-58.666 56.533V520.12l57.6 2.133z" fill="#C2C9D1"/><path d="M383.1 544.653v240.001h6.4l46.933-240.001H383.1z" fill="#CED6E0"/><path d="M389.5 544.653v240.001l58.666-55.467-1.066-184.534h-57.6z" fill="#B2B7BA"/><path d="M720 429s-12.634 7.92-16.9 18.587c-5.333 11.733-7.467 29.867-7.467 29.867l-8.533 59.733s-52.267-1.067-57.6-14.933c-5.333-13.867 6.166-31.22 11.5-39.754 4.267-8.533 47.167-74.38 47.167-74.38h1.067s10.667 5.333 16 8.533C709.501 419.853 713 424 716.5 426c2 1.5 3.5 3 3.5 3z" fill="#8CC9D7"/><path d="M682.833 410.253c1.178 0 2.133-1.91 2.133-4.267 0-2.356-.955-4.267-2.133-4.267s-2.133 1.911-2.133 4.267c0 2.357.955 4.267 2.133 4.267z" fill="#415A6B"/><path d="M613.5 400.653l2-3.2s3.334-1.067 6.534 0c3.2 1.067 20.267-1.067 23.467 0 0 0-4.267 29.867-4.267 37.333 0 7.466-1.067 42.667-1.067 48 0 5.333-8.533 45.867-18.133 50.133-7.467 3.2-26.667-8.533-32-12.8-1.067-1.067-1.067-2.133-1.067-3.2 4.267-7.467 17.067-34.133 19.2-44.8 2.133-12.8 2.133-23.467 2.133-23.467s-2.133-22.4-1.067-32c1.067-8.532 4.267-15.999 4.267-15.999z" fill="#8CC9D7"/><path d="M735.1 522.253l-57.6 41.6-294.4-17.066 70.4-37.334 281.6 12.8z" fill="#DAE3ED"/><path d="M485.5 542.52l-20.267-56.533v-1.067l8.533-17.067h1.067l18.133 51.2-7.466 23.467z" fill="#415A6B"/><path d="M554.833 520.12l-5.333 17.067c-1.067 3.2-6.4 3.2-9.6 3.2-3.2 0-51.2 1.067-53.333 0-2.133-1.067-2.133-2.133-2.133-2.133l8.533-17.067 59.733-3.2c1.066-.001 2.133 1.066 2.133 2.133z" fill="#344A5E"/><path d="M546.3 525.454l-3.2 9.6h-10.667l2.133-8.533 11.734-1.067zM531.366 522.253l-4.267 14.933H488.699l6.4-13.867 36.267-1.066zM484.433 540.387v-2.133s0 1.067 2.133 1.067 58.667 1.067 59.733 0c2.133-1.067 2.133-1.067 3.2-2.133 0 0-1.067 4.267-4.267 4.267s-49.067 1.067-58.667 0c-1.065 1.065-2.132-.002-2.132-1.068z" fill="#415A6B"/><path d="M490.833 515.853l-6.4 16-17.067-46.933 7.467-13.867 16 44.8zM529.233 472.12s4.267 28.8 11.733 22.4c7.466-6.4 7.467-18.133 7.467-18.133s0-12.801-19.2-4.267z" fill="#CED6E0"/><path d="M286.033 763.32c-1.067 0-2.133-1.066-2.133-3.2l23.467-94.933 4.267 1.067-23.467 94.934c-.001 1.065-1.067 2.132-2.134 2.132zM399.1 757.987l-27.733-96 4.267-1.067 27.733 96c0 1.066 0 2.133-2.133 3.2-.001-1.067-1.068-1.067-2.134-2.133zM304.166 644.92c-30.933-2.133-30.933-35.2-30.933-35.2h4.267c0 1.067 0 28.8 26.667 30.933v4.267h-.001z" fill="#344A5E"/><path d="M300.967 631.053s-10.667 7.467-16 19.2c-5.333 12.8-2.133 18.133 2.133 20.267 5.333 1.067 84.267 6.4 82.133-12.8 0-20.267-10.667-41.6-68.266-26.667z" fill="#A1B0C3"/><path d="M297.766 674.787c-8.533 0-14.933-1.067-17.067-2.133-14.933-8.533-18.133-28.8-18.133-29.867l4.267-1.067s3.2 19.2 16 26.667c8.533 4.267 70.4-2.133 80-4.267 6.4-1.067 11.733-8.533 12.8-8.533l3.2 3.2s-7.467 8.533-14.933 10.667c-4.267 1.066-42.667 5.333-66.134 5.333zm-33.066-32h2.133-2.133z" fill="#415A6B"/><path d="M242.3 541.453s3.2-1.067 5.333 0c3.2 1.067 9.6 4.267 16 14.933 6.4 10.667 19.2 38.4 20.267 50.133 1.067 11.733-5.333 21.333-6.4 23.467-1.067 3.2-1.067 5.333-1.067 7.467 0 2.134-3.2 8.533-7.467 8.533-2.133 0-28.8-61.867-28.8-61.867s-13.867-27.733-13.867-32c.001-4.266 10.668-10.666 16.001-10.666z" fill="#A1B0C3"/><path d="M488.7 767.586l3.2 3.2s1.067 3.2-7.467 7.467c-6.4 2.133-29.867 7.467-40.533 5.333-10.667-1.066-34.133-9.6-37.333-10.667l6.4-9.6 75.733 4.267z" fill="#415A6B"/><path d="M407.633 770.786s30.933 14.934 55.467 10.667c24.533-5.333 32-7.467 26.667-12.8-5.333-5.333-13.867-4.267-21.333-7.467-7.467-3.2-19.2-7.467-22.4-13.867l-3.2-6.4-28.8 4.267c1.066-1.066-7.468 18.134-6.401 25.6z" fill="#2D4456"/><path d="M387.366 732.387s-12.8 5.333-16 11.733c0 0 13.867 12.8 24.533 13.867 10.667 1.066 14.933-9.6 14.933-9.6l5.333-19.2-28.799 3.2z" fill="#E8EAE9"/><path d="M396.967 597.986s51.2 13.867 73.6 21.333c22.4 8.533 30.933 17.067 32 26.667 2.133 9.6-13.867 28.8-20.267 34.133-7.467 5.333-37.333 46.933-44.8 54.4-7.467 7.467-22.4 13.867-22.4 13.867s-6.4-4.267-20.267-8.533c-12.8-4.267-18.133-5.333-18.133-5.333s23.467-20.267 30.933-32c7.467-10.667 19.2-27.733 19.2-27.733S403.366 625.72 395.9 619.32c-6.4-4.267 1.067-21.334 1.067-21.334z" fill="#7BC6DB"/><path d="M440.7 730.253c7.467-10.667 11.733-23.467 12.8-36.267 1.067-8.533 0-17.067-3.2-24.533-3.2-7.467-10.667-13.867-18.133-14.933-3.2 0-6.4 0-7.467 2.133l-2.133 6.4c4.267 8.533 6.4 13.867 6.4 13.867s-7.467 16-9.6 20.267c-7.467 14.934-10.667 32-10.667 48 4.267 2.133 6.4 3.2 7.467 3.2 9.599-3.2 18.133-9.601 24.533-18.134z" fill="#52A5BC"/><path d="M492.967 644.92c-4.267 3.2-11.733 8.533-11.733 8.533s12.8-11.733 9.6-10.667c-3.2 1.067-9.6 9.6-9.6 9.6s-1.067-6.4-6.4-10.667c-5.333-4.267-29.867-10.667-29.867-10.667 2.133-3.2 12.8-9.6 9.6-8.533-3.2 1.067-10.667 7.467-10.667 7.467-4.267-1.067-7.467-2.133-7.467-2.133 2.133-3.2 14.933-11.733 9.6-9.6-5.333 2.133-11.733 8.533-11.733 8.533-3.2-1.067-13.867-6.4-22.4-12.8-8.533-6.4-9.6 3.2-9.6 3.2s19.2 21.333 21.333 24.533c2.133 3.2 35.2 57.6 35.2 57.6l3.2 5.333c6.4-8.533 13.867-17.067 17.067-21.333 4.267-12.8 1.067-26.667 1.067-26.667s4.267-2.133 11.733-5.333c8.533-4.266 5.333-9.599 1.067-6.399z" fill="#52A5BC"/><path d="M495.101 653.453l-12.8 3.2h-1.067s-1.067 0-1.067-1.067c3.2-1.067 14.933-5.333 17.067-3.2 0 .001-1.067 1.067-2.133 1.067z" fill="#4ABAA5"/><path d="M304.166 626.787s-1.067 24.533 19.2 29.867c12.8 4.267 52.267 7.467 69.333 13.867 17.067 5.333 43.733 11.733 43.733 11.733s-16 5.333-20.267 34.133c-5.333 27.733-4.267 41.6-4.267 41.6s12.8-7.467 17.067-7.467c4.267 0 13.867 4.267 17.067-1.066 3.2-5.333 9.6-32 13.867-38.4 4.267-6.4 16-22.4 18.133-32 2.133-9.6 2.133-26.667-7.467-32-8.533-6.4-62.933-25.6-62.933-25.6l-103.466 5.333z" fill="#7BC6DB"/><path d="M393.766 442.253l1.067-5.333s2.6-7.92 3.667-7.92c2.133 0 5.3 4.614 10-1 0 0 2-3.5 2.333-6.014 2.133-2.133-1.067-3.2-1.067-3.2s2.133 1.067 3.2-2.133c1.067-2.133 1.067-5.333 1.067-5.333s5.333 0 7.467-1.067C423 408 419 407 417 400c0-1.067.233-3.614.233-3.614s2.133-1.067 2.133-4.267-1.067-13.867-5.333-19.2c-4.266-5.333-28.8-7.467-28.8-7.467L360.7 412.385c1.066 1.068 23.466 26.668 33.066 29.868z" fill="#D9F7FE"/><path d="M363.9 412.387s6.4 7.467 18.133 5.333c0 0-1.067-12.8 3.2-18.133 4.267-5.333 11.733-2.133 12.8 3.2h3.2s1.067-5.333 4.267-10.667c3.2-4.267 4.267-14.933 0-19.2 0 0-3.5 12.58 10 4.58 0 0 14.5-7.5 1.5-14-20.5-13-26.5-15-41-11-17.5 7.5-18.499 9.754-20.633 19.354-4.267 10.666 4.266 31.999 8.533 40.533z" fill="#57788F"/><path d="M542.033 491.32c-1.067 1.067-2.133 3.2-3.2 2.133 0 0 1.067 4.267-1.067 6.4-2.133 2.133-2.133 3.2-2.133 5.333 0 1.067-1.067 6.4-1.067 6.4l-8.533 3.2s-9.6-4.267-11.733-4.267c-2.133 0-10.667 2.133-10.667 2.133l4.267-18.133s1.067-1.067 3.2-2.133c0 0 2.133-5.333 3.2-7.467 1.067-2.133 3.2-3.2 3.2-5.333s3.2-2.133 3.2-2.133l2.133-2.133s2.133 1.067 2.133 3.2c-1.067 2.133-2.133 3.2-2.133 4.267v1.067h4.267c1.067 1.067 3.2 3.2 3.2 4.267 0 0 4.267-3.2 7.467-2.133 2.133-.002 4.266 4.265 4.266 5.332z" fill="#D9F7FE"/><path d="M358.566 416.653l4.267-5.333s9.6 6.4 19.2 16 14.933 17.067 14.933 20.267v4.267l-18.133-9.6-20.267-25.601z" fill="#E8EAE9"/><path d="M358.566 420.92h-4.267s-4.267 2.133-10.667 17.067c-6.4 14.934-16 38.4-19.2 49.067-3.2 10.667-12.8 73.6-14.933 85.333-2.133 11.733-10.667 59.733-10.667 59.733s5.333-1.067 21.333-2.133c16-1.067 45.867 0 56.533-3.2 10.666-3.2 32-7.467 32-7.467s-4.267-52.267-5.333-64c-1.067-11.733 6.4-53.333 5.333-64-1.067-10.667-50.132-70.4-50.132-70.4z" fill="#52A5BC"/><path d="M354.3 420.92s1.067 2.133 6.4 7.467c5.333 6.4 17.067 18.133 17.067 18.133l8.533-4.267s-16-21.333-24.533-27.733c-1.067-1.067-2.133 0-2.133 0l-5.334 6.4z" fill="#8CC9D7"/><path d="M380.967 500.92c-9.6-1.067-17.067-8.533-19.2-18.133-1.067-4.267-1.067-9.6 0-14.933 5.333-22.4 13.867-29.867 20.267-30.933 6.4-1.067 21.333 12.8 22.4 17.067 1.067 4.267 2.133 12.8 6.4 17.067 4.267 4.267 14.933 8.533 21.333 11.733 6.4 3.2 10.667 7.467 16 8.533 4.267 1.067 17.067 1.067 20.267 1.067 4.267 0 13.867 2.133 18.133 1.067 5.333-1.067 22.4-2.133 22.4-2.133s4.267 6.4 2.133 20.267c-2.133 13.867-5.333 14.933-5.333 14.933s-33.067-4.267-40.533-3.2c-6.4 0-16 2.133-21.333-1.067-5.333-2.133-33.067-12.8-42.667-18.133-5.334-1.069-13.868-3.202-20.267-3.202z" fill="#7BC6DB"/><path d="M521.766 483.853s3.2 0 5.333 3.2 2.133 4.267 4.267 5.333l2.133 2.133c1.067 1.067 2.133 1.067 3.2 1.067 1.067-1.067 2.133-1.067 2.133-3.2-1.067-3.2-2.133-5.333-2.133-5.333 0-1.067 4.267 1.067 5.333 3.2l12.8-8.533-14.933-12.8-9.6 4.267c-1.066-2.134-6.399 5.333-8.533 10.666zM521.766 512.653h3.2s1.067 0 1.067-1.067c1.067-1.067 4.267-4.267 6.4-2.133 0 0 1.067-2.133 2.133-2.133 0 0 0-3.2 1.067-4.267h2.133l-1.067 4.267s-1.067 4.267-2.133 5.333c-1.067 1.067-5.333 1.067-5.333 1.067s-2.133 2.133-4.267 1.067c-2.133-1.067-4.267-3.2-4.267-3.2l1.067 1.066z" fill="#ECFBFE"/><path d="M248.7 541.453s-4.267 0-8.533 1.067c-4.266 1.067-10.667 5.333-11.733 7.467-1.066 2.134 0 6.4 3.2 9.6 3.2 4.267 9.6 7.467 11.733 20.267 3.2 12.8 25.6 67.2 25.6 67.2s-4.267 3.2-6.4 1.067-17.067-40.533-19.2-45.867c-2.133-6.4-7.467-21.333-7.467-21.333s-2.133-7.467-5.333-12.8c-3.2-5.333-7.467-10.667-6.4-16 1.066-5.334 15.999-13.868 24.533-10.668z" fill="#415A6B"/><path d="M284.967 606.52c0-4.267-2.133-9.6-4.267-16-4.267-11.733-10.667-23.467-17.067-33.067-1.067-1.067-1.067-2.133-2.133-3.2-6.4-8.533-17.067-9.6-21.333-6.4-4.267 3.2-2.133 6.4 6.4 19.2 8.533 12.8 16 27.733 23.467 45.867 4.267 11.733 6.4 20.267 7.467 25.6 0-2.133 0-4.267 1.067-7.467 1.065-3.2 6.399-12.8 6.399-24.533z" fill="#CCDFF7"/><path d="M272.166 809.187c-1.067 0-2.133-1.066-2.133-3.2l25.6-133.333 4.267 1.067-25.6 133.333c1.066 2.133 0 2.133-2.134 2.133zM399.1 801.72l-38.4-134.4 4.267-1.067 38.4 134.4c0 1.066 0 2.133-2.133 3.2l-2.134-2.133z" fill="#415A6B"/><path d="M495.1 653.453l-12.8 3.2h-1.067s-1.067 0-1.067-1.067c3.2-1.067 14.933-5.333 17.067-3.2 0 .001-1.067 1.067-2.133 1.067z" fill="#52A5BC"/><path d="M363.9 760.12l-3.2 5.333 22.4 10.667 2.133-3.2s10.667 6.4 17.067 10.667c6.4 4.267 13.867 7.467 28.8 6.4 14.933-1.066 17.067-1.066 16-4.267-1.067-4.267-8.533-4.267-8.533-4.267l-69.333-22.4-5.334 1.067z" fill="#415A6B"/><path d="M448.166 785.72s-12.8 2.133-21.333 1.066c-8.533-1.066-12.8 0-18.133-4.267-5.333-4.267-28.8-16-36.267-19.2-7.467-3.2-9.6-4.267-9.6-4.267s-2.133-11.733 9.6-19.2c0 0 9.6 9.6 20.267 11.733 9.6 1.066 18.133-3.2 18.133-3.2s5.333 12.8 10.667 18.133c5.334 5.333 12.8 8.533 19.2 9.6 6.4 3.202 8.533 7.468 7.466 9.602z" fill="#344A5E"/><path d="M529.233 472.12s5.333-3.2 11.733 2.133c6.4 4.267 5.333 17.067 0 20.267 0 0 14.933-6.4 21.333-9.6 6.4-2.133 23.467-11.733 28.8-17.067 5.333-5.333 16-14.933 18.133-16l2.133-2.133s-1.067-17.067 1.067-23.467c2.134-6.4 6.4-24.533 3.2-28.8 0 0-2.133 0-5.333 5.333s-4.665 10.58-6.799 12.714c-2.133 2.133-2.801 3.433-3.868 4.5-1.067 2.133-4.266 7.667-8.533 13-5.333 4.267-13.868 7.12-16.001 10.32-2.133 3.2-7.467 7.467-14.933 10.667-6.4 3.2-17.067 10.667-22.4 13.867-5.332-.001-8.532 4.266-8.532 4.266z" fill="#59A6B8"/><path d="M690.499 377.017c0 6.4-6.4 13.867-8.533 17.067l-1.067 1.067v3.2c-1.067 3.2-2.133 6.4-5.333 11.733l-24.533 13.867v-16c-7.467 1.067 3.601-.635-3.533-3.451 7.134 0 1.067-10.533 0-18-1.067-8.533 0-6.5 0-6.5 10.667 2.549 8.5-8.433 8.5-9.5 0-1.067 12.433-4.933 13.5-6 3.2-9.6 9.5 6 9.5 6s-13.034-23.349-2.367-22.282c11.733 1.065 13.866 21.332 13.866 28.799z" fill="#ECFBFE"/><path d="M682.833 407.053s-4.267 11.733-22.4 13.867c0 0 7.467 13.867 6.4 23.467 0 0 17.067-29.867 17.067-30.933 0-.001 0-3.201-1.067-6.401zM655.1 420.92s-2.133 0-3.2 1.067c-1.067 1.067-7.467 9.6-7.467 9.6l1.067-12.8s3.2 1.067 7.467 1.067c0-2.134 1.066-1.067 2.133 1.066z" fill="#F3F3F3"/><path d="M676.433 526.52s-2.133 2.133-5.333 2.133c-3.2 1.067-11.733 0-16 1.067-4.267 1.067-12.8 5.333-18.133 5.333 0 0-6.4 2.133-10.667 3.2-4.267 0-5.333 0-5.333-1.067 0 0-6.4 3.2-11.733 1.067 0 0-5.333 1.067-7.467-1.067 0 0-1.067-1.067-1.067-3.2l4.267-3.2s-1.067-2.133 0-3.2l4.267-2.133s3.2-1.067 4.267-1.067c1.067 0 4.267-2.133 6.4-3.2 1.067-1.067 19.2-4.267 23.467-5.333 4.267-1.067 18.133-5.333 25.6-4.267h8.533l-1.068 14.934z" fill="#ECFBFE"/><path d="M609.233 537.187v-2.133c1.067 0 2.133-1.067 3.2-1.067 0 0 1.067 0 1.067-1.067 0 0 1.067 0 1.067-1.067 0 0 1.067 0 1.067-1.067l1.067-1.067 2.133-2.133s1.067 0 1.067-1.067h1.067c1.067 0 2.133-1.067 3.2-1.067l3.2-1.067c1.067 0 2.133-1.067 3.2-1.067-1.067 0-2.133 1.067-3.2 1.067-1.067 0-2.133 1.067-3.2 1.067-1.067 0-2.133 1.067-3.2 1.067h-1.067s-1.067 0-1.067 1.067c-1.067 0-1.067 1.067-2.133 2.133l-1.067 1.067-1.067 1.067c-1.067 0-2.133 1.067-3.2 1.067-1.067 0-2.133 1.067-3.2 1.067v1.067c1.066 1.066 1.066 2.133 1.066 2.133zM601.766 536.12c1.067 0 1.067-1.067 0 0 0-1.067 0-2.133 1.067-2.133l1.067-1.067 1.067-1.067h2.134c1.067-1.067 3.2-1.067 4.267-2.133 0 0 1.067 0 1.067-1.067 0 0 1.067 0 1.067-1.067 1.067 0 1.067-1.067 2.133-1.067 1.067-1.067 2.133-1.067 3.2-1.067 2.133-1.067 3.2-1.067 3.2-1.067s-1.067 1.067-3.2 1.067c-1.067 0-2.133 1.067-3.2 2.133-1.067 0-1.067 1.067-2.133 1.067 0 0-1.067 0-1.067 1.067 0 0-1.067 0-1.067 1.067-1.067 1.067-3.2 1.067-4.267 2.133h-2.134c-1.067 0-1.067 1.067-1.067 1.067l-1.067 1.067-1.067 1.067c1.067 0 0 0 0 0zM606.033 529.72l2.133-2.133c1.067 0 1.067-1.067 2.133-1.067s2.133-1.067 3.2-1.067c1.067 0 2.133-1.067 3.2-1.067 1.067 0 2.133-1.067 2.133-1.067 1.067 0 1.067 0 2.133-1.067h0s-1.067 1.067-2.133 1.067c-1.067 1.067-3.2 1.067-5.333 2.133-1.067 0-2.133 1.067-3.2 1.067-1.067 0-2.133 1.067-2.133 1.067-1.066 1.067-2.133 1.067-2.133 2.134zM620.967 537.187v-1.067c1.067 0 1.067-1.067 2.133-1.067l2.133-1.067c1.067 0 2.133-1.067 2.133-1.067s1.067 0 1.067-1.067h1.067c1.067 0 2.133-1.067 3.2-1.067 0 0-1.067 0-1.067 1.067 0 0-1.067 0-1.067 1.067 0 0-1.067 0-1.067 1.067 0 0-1.067 0-1.067 1.067-1.067 0-2.133 1.067-2.133 1.067l-3.2 1.067c-1.067 0-1.067 0-2.133 1.067l.001-1.067z" fill="#D9F7FE"/><path d="M722.134 490.5c0 8.533 2.7 24.434-2.634 25.5-3.2 1.067-19.767 11.133-32.567 12.2-5.333 0-10.667 1.067-12.8 1.067-8.533 1.067-23.467 3.2-23.467 3.2s4.267-5.333-2.133-11.733c-5.333-6.4-8.533-8.533-8.533-8.533s13.867-2.133 22.4-3.2c8.533-1.067 16-1.067 23.467-3.2 1.067 0 3.2-1.067 4.267-1.067 5.333-2.133 7.467-4.267 7.467-4.267s-2.133-12.8-2.133-19.2c0-6.4 1.067-17.067 1.067-17.067 1.067-5.333 3.2-11.733 5.333-16 5.333-11.733 18.133-19.2 18.133-19.2s4.267 0 3.2 6.4c-1.067 5.333-3.767 8.767-2.701 14.1 1.067 4.267-.066 13.733 1 18 0 1.066.634 14.467.634 23z" fill="#59A6B8"/><path d="M684.435 357.734s11.201 6.721 19.414 18.668c8.213 11.947 13.441 18.668 20.161 20.161 0 0-3.733 11.2-19.414 2.987-15.681-8.214-20.908-15.681-22.401-23.148-1.494-7.467 2.24-18.668 2.24-18.668z" fill="#57788F"/><path d="M635.154 341.327s-3.733 0-5.973 5.227c-2.24 5.227-3.733 17.174-2.987 19.414.746 2.24 2.987 4.48 2.987 6.72 0 2.24 0 8.961 3.733 16.428 4.481 7.467 4.481 10.453 5.227 13.44.747 2.987 9.708 5.228 14.188 0L660.5 422l24-8.5-2.304-28.864c-.747-2.24-1.493-4.48-2.24-5.227 0 0 4.48-29.869-1.493-35.095-5.973-5.226-43.309-2.987-43.309-2.987z" fill="#ECFBFE"/><path d="M672 382c-1.59 5.655-13.896 31.397-29 42 .795-5.655-.5-10.5 1.5-18.5-.345 1.5 21.936-10.776 27.5-23.5z" fill="#D9F7FE"/><path d="M627 353.262s7.5 3.238 11.5 4.738c5 1 6.026 1.5 12 1.5 6.72-.747 6.315-9.225 4.822-6.238-1.493 2.987-1.493 10.453 2.987 12.693s4.48 7.467 4.48 7.467l.711 7.078s.782-14.545 8.25-16.038C678.47 362.222 677 381 677 381s11.923-4.591 11.177-29.232c-.747-24.641-32.854-25.387-42.562-20.16-8.961 4.48-19.057 11.132-18.615 21.654z" fill="#57788F"/><path d="M675.5 382.5c-.999 10-.001 3.585-1 12.579 1 6.921 4.246 6.701 3.5 13.421-.747 6.72 1 18.5 5.688 25.407-1.493-3.733-.746-8.213 0-11.947.747-3.734 2.987-7.467 4.481-11.2 0 4.48-.747 8.96 0 13.44.747 4.48 1.493 8.961 4.48 12.694C696.382 441.374 703.527 448 709.5 448c-2.987-2.24-4.753-21.267-5.5-25-.834-4.167-.747-3.733 0 0 1.493-9.707 2.836-18.214 2.089-27.921-1.493-9.707-5.227-19.414-12.693-25.388-2.987-2.987-6.721-4.48-9.708-7.467-2.987-2.987-5.227-7.467-3.733-11.201" fill="#57788F"/><path d="M661.332 458.817c2.133-3.2 4.268-6.4 6.401-8.533C672 443.884 675.667 436.466 681 429c-1.533-5.95-3-13.5-3-13.5l-16.668 3.851L659 419l-3-.716c-2.5-.784-6.5-5.784-12.5-7.784 0 0-1.367 17.384-3.5 26.984v48c6.4-7.468 13.866-17.068 21.332-26.667 0 1.066 0 1.066 0 0z" fill="#6E9DA8"/><path d="M770.112 581.876l-.051.11c-.931-6.756-2.249-13.211-3.942-19.312l3.867-1.169c5.61-1.697 9.749-4.691 12.797-8.062 6.982-7.722 8.238-17.418 8.307-17.998l1.193-10.001-8.987 4.546c-.695.352-16.561 8.541-19.919 24.007a111.625 111.625 0 0 0-3.053-7.64c.12-1.967.104-6.677-2.013-12.433-2.393-6.503-8.063-15.725-21.492-22.732l-8.798-4.59.928 9.879c2.042 21.728 15.435 30.919 21.379 33.961 1.842 4.112 3.411 8.402 4.724 12.82l-1.884-1.648c-.525-.46-13.064-11.238-29.507-8.513l-10.053 1.666 7.028 7.379c13.383 14.051 29.946 8.889 30.644 8.662l5.339-1.733c1.667 6.842 2.785 13.921 3.448 21.061-6.405-3.801-21.113-10.642-40.132-7.556l-11.709 1.899 9.125 7.579c19.389 16.102 37.96 11.937 43.421 10.186.132 5.276.043 10.527-.226 15.683-2.748-1.458-21.135-10.456-43.922-3.281l-11.314 3.563 10.12 6.188c21.677 13.256 39.547 6.096 44.345 3.696-1.535 15.468-4.573 29.558-8.009 40.123l-1.669 5.131 10.264 3.339 1.67-5.132c2.994-9.207 5.367-19.492 7.017-30.153l2.045.833c9.95 4.053 19.268-2.807 19.661-3.101l10.476-7.863-12.974-1.798c-1.147-.16-11.283-1.399-18.03 3.214.551-4.76.954-9.557 1.203-14.33l6.583.046c16.706.12 27.746-6.246 34.066-11.606a46.43 46.43 0 0 0 4.41-4.269c3.721-4.116 5.416-7.51 5.648-7.994l3.831-7.984-8.852.256c-1.023.029-25.258.974-43.228 22.768l-2.224 2.698c.039-1.593.062-3.18.064-4.759a191.63 191.63 0 0 0-.743-17.388l4.78-.664c10.263-1.424 17.812-7.115 22.956-12.803 5.697-6.301 8.442-12.601 8.65-13.092l5.129-12.053-12.131 4.944c-.937.381-23.01 9.525-30.256 25.42z" fill="#DBF8FF" opacity=".7"/><path d="M777.284 768.749h-50.531c-10.313 0-19.078-6.703-21.141-16.5l-15.469-74.25c-1.546-6.187 3.61-12.375 10.313-12.375h102.609c6.703 0 11.859 6.188 10.312 12.375l-15.468 74.25c-1.547 9.797-10.313 16.5-20.625 16.5z" fill="url(#paint2_linear)"/><defs><linearGradient id="paint0_linear" x1="280.199" y1="665.624" x2="280.199" y2="768.749" gradientUnits="userSpaceOnUse"><stop stop-color="#A9DAE5"/><stop offset="1" stop-color="#D9F7FE"/></linearGradient><linearGradient id="paint1_linear" x1="559.1" y1="509.453" x2="559.1" y2="744.12" gradientUnits="userSpaceOnUse"><stop stop-color="#C2C9D1"/><stop offset="1" stop-color="#9FA4AB"/></linearGradient><linearGradient id="paint2_linear" x1="751.76" y1="665.624" x2="751.76" y2="768.749" gradientUnits="userSpaceOnUse"><stop stop-color="#A9DAE5"/><stop offset="1" stop-color="#D9F7FE"/></linearGradient></defs></svg>